<svg id="logo" xmlns="http://www.w3.org/2000/svg" viewBox="0 0 1365 383"><defs><style>.cls-1{fill:#b53349;}.cls-2{fill:#cc5678;}.cls-3{fill:#1369aa;}.cls-4{fill:#287eb2;}.cls-5{fill:#4899c1;}.cls-6{fill:#b5420f;}.cls-7{fill:#c94917;}.cls-8{fill:#db5c35;}.cls-9{fill:#2ab131;}.cls-10,.cls-11{fill:#2e3841;}.cls-11{fill-rule:evenodd;}.cls-12{fill:#e29c00;}.cls-13{fill:#dbd000;}.cls-14{fill:#8bc540;}.cls-15{fill:#c8cc1f;}.cls-16{fill:#d5ef3c;}.cls-17{fill:#ce7234;}.cls-18{fill:#bed800;}.cls-19{fill:#89346b;}.cls-20{fill:#6d1d4d;}.cls-21{fill:#965783;}.cls-22{fill:#49b7b1;}.cls-23{fill:#258787;}.cls-24{fill:#32a09d;}</style></defs><title>autumn_17</title><g id="site"><polygon class="cls-1" points="634.28 24.82 635.73 17.12 646.3 20.64 634.28 24.82"/><polygon class="cls-2" points="635.95 16.98 616.35 27.64 631.5 38 635.95 16.98"/><polygon class="cls-1" points="596.11 49.61 631.5 38 598.51 15.47 596.11 49.61"/><polygon class="cls-2" points="596.11 49.61 608.18 63.98 630.5 44.51 631.5 38 596.11 49.61"/><polygon class="cls-1" points="596.11 49.61 601.94 87.02 611.69 68.13 596.11 49.61"/><polygon class="cls-2" points="557.75 23.36 596.11 49.61 598.51 15.47 557.75 23.36"/><polygon class="cls-1" points="562.83 26.83 551.89 31.09 596.11 49.61 562.83 26.83"/><polygon class="cls-3" points="1200.58 27.03 1136.37 14.47 1163.45 43.53 1200.58 27.03"/><polygon class="cls-4" points="1163.45 43.53 1136.39 83.08 1136.37 14.47 1163.45 43.53"/><polygon class="cls-5" points="1136.37 14.47 1136.39 83.08 1078.17 49.29 1136.37 14.47"/><polygon class="cls-4" points="1129.75 18.45 1116.74 2.89 1093.1 33.85 1097.05 38.03 1129.75 18.45"/><polygon class="cls-3" points="1097.05 38.03 1082.88 23.05 1078.17 49.29 1097.05 38.03"/><polygon class="cls-5" points="1082.88 23.05 1069.28 22.42 1078.17 49.29 1082.88 23.05"/><polygon class="cls-3" points="1069.28 22.42 1072.94 33.52 1059.24 31.19 1069.28 22.42"/><polygon class="cls-3" points="1116.74 2.89 1097.46 6.6 1108.99 13.07 1116.74 2.89"/><polygon class="cls-3" points="1136.39 83.08 1078.17 49.29 1089.18 80.19 1136.39 83.08"/><path class="cls-5" d="M1136.39,83.08c0,.58,13.25,53.48,13.25,53.48l-60.34-56.31Z"/><polygon class="cls-4" points="1136.31 83.08 1175.8 129.06 1154.42 155.8 1136.31 83.08"/><polygon class="cls-3" points="1179.37 112.41 1172.05 124.7 1145.25 93.5 1179.37 112.41"/><polygon class="cls-6" points="735.14 21.95 737.58 14.28 740.78 22.03 735.14 21.95"/><polygon class="cls-7" points="737.58 14.28 740.78 22.03 755.24 13.02 737.58 14.28"/><polygon class="cls-8" points="740.78 22.03 755.24 13.02 745.87 39.34 740.78 22.03"/><polygon class="cls-6" points="755.24 13.02 745.87 39.34 768.44 32.22 755.24 13.02"/><polygon class="cls-8" points="745.87 39.34 768.44 32.22 809 92.82 745.87 39.34"/><polygon class="cls-6" points="745.87 39.34 750.29 63.02 809 92.82 745.87 39.34"/><polygon class="cls-7" points="771.96 74 767.78 80.61 779.56 77.86 771.96 74"/><polygon class="cls-7" points="768.44 32.22 801.52 81.62 820.11 29.62 768.44 32.22"/><polygon class="cls-6" points="806.36 68.02 801.52 81.62 846.91 94.41 806.36 68.02"/><polygon class="cls-8" points="801.52 81.62 809 92.82 846.91 94.41 801.52 81.62"/><polygon class="cls-6" points="809 92.82 820.89 93.32 827.32 103 809 92.82"/><polygon class="cls-8" points="768.44 32.22 798.94 0.49 861.28 27.5 768.44 32.22"/><polygon class="cls-6" points="768.44 32.22 786.88 -1.19 795.55 3.97 768.44 32.22"/><polygon class="cls-6" points="820.11 29.62 837.68 28.66 845.68 33.95 820.11 29.62"/><g id="labs"><path class="cls-9" d="M1097,237h13.38V172.78H1097Zm61.4-42.42a16.82,16.82,0,0,0-6.47-3.91,28.91,28.91,0,0,0-9.46-1.37,42.64,42.64,0,0,0-10.21,1.06,53,53,0,0,0-8.1,2.73l3.34,10.21a46.29,46.29,0,0,1,6.2-1.89,31.48,31.48,0,0,1,6.82-.66q5,0,7.57,2.2a8,8,0,0,1,2.55,6.42v.79a39.52,39.52,0,0,0-5.24-1.41,33,33,0,0,0-6.29-.53,30,30,0,0,0-7.7.92,17.61,17.61,0,0,0-6,2.77,12.86,12.86,0,0,0-3.92,4.66,14.79,14.79,0,0,0-1.41,6.69v.18a14.27,14.27,0,0,0,1.28,6.2,13.25,13.25,0,0,0,3.48,4.53,14.72,14.72,0,0,0,5.15,2.77,20.92,20.92,0,0,0,6.29.92,19.41,19.41,0,0,0,8.36-1.63,18.58,18.58,0,0,0,5.9-4.36V237h12.94V209.65a28,28,0,0,0-1.23-8.58A15.86,15.86,0,0,0,1158.43,194.61Zm-7.57,25.78a7.3,7.3,0,0,1-2.86,6,11.82,11.82,0,0,1-7.61,2.29,8.66,8.66,0,0,1-5.28-1.49,5,5,0,0,1-2-4.23v-.18a5.49,5.49,0,0,1,2.46-4.84,12,12,0,0,1,6.78-1.67,21.1,21.1,0,0,1,4.62.48,20.47,20.47,0,0,1,3.92,1.27Zm67.39-25.12a19.84,19.84,0,0,0-6.86-4.71,21,21,0,0,0-8-1.58,16.36,16.36,0,0,0-8.76,2.16,21.16,21.16,0,0,0-5.94,5.5V172.78h-13.38V237h13.38v-6.16a23.59,23.59,0,0,0,5.85,4.93,16.8,16.8,0,0,0,8.84,2.11,21.2,21.2,0,0,0,8.1-1.58,19.41,19.41,0,0,0,6.82-4.71A23.87,23.87,0,0,0,1223,224a28,28,0,0,0,1.8-10.43v-.18a28.06,28.06,0,0,0-1.8-10.43A23.47,23.47,0,0,0,1218.25,195.26Zm-6.78,18.26a14.73,14.73,0,0,1-.92,5.37A12.79,12.79,0,0,1,1208,223a11.08,11.08,0,0,1-3.65,2.64,11.15,11.15,0,0,1-8.89,0,10.61,10.61,0,0,1-3.61-2.64,13.11,13.11,0,0,1-2.46-4.13,14.82,14.82,0,0,1-.92-5.33v-.18a14.8,14.8,0,0,1,.92-5.32,13.16,13.16,0,0,1,2.46-4.14,10.65,10.65,0,0,1,3.61-2.64,11.15,11.15,0,0,1,8.89,0,11.13,11.13,0,0,1,3.65,2.64,12.72,12.72,0,0,1,2.51,4.14,14.81,14.81,0,0,1,.92,5.32ZM1267.6,217a13.3,13.3,0,0,0-3.34-3.87,20.63,20.63,0,0,0-4.58-2.68q-2.55-1.1-5-1.89-1.94-.61-3.65-1.23a27.8,27.8,0,0,1-3-1.27,8.73,8.73,0,0,1-2.11-1.41,2.29,2.29,0,0,1-.79-1.71v-.18a2.8,2.8,0,0,1,1.23-2.33,6.13,6.13,0,0,1,3.7-.92,18,18,0,0,1,5.9,1.19,42.14,42.14,0,0,1,6.86,3.21l5.1-9.24a33.84,33.84,0,0,0-8.49-4,30.3,30.3,0,0,0-9.11-1.45,22.69,22.69,0,0,0-6.73,1,15.79,15.79,0,0,0-5.46,2.9,13.87,13.87,0,0,0-5.06,11.09v.18a12.13,12.13,0,0,0,1.28,5.81,12.88,12.88,0,0,0,3.3,4,17.76,17.76,0,0,0,4.53,2.64,49.24,49.24,0,0,0,5,1.71q1.93.62,3.7,1.15a32.17,32.17,0,0,1,3.12,1.1,6.66,6.66,0,0,1,2.16,1.36,2.53,2.53,0,0,1,.79,1.85v.18a3,3,0,0,1-1.36,2.55,7.43,7.43,0,0,1-4.27,1,20.81,20.81,0,0,1-7.17-1.41,31.87,31.87,0,0,1-7.7-4.22l-5.72,8.8a33,33,0,0,0,20.24,7.13A26.19,26.19,0,0,0,1258,237a17.22,17.22,0,0,0,5.76-2.77,12.51,12.51,0,0,0,3.83-4.71,15.71,15.71,0,0,0,1.36-6.82v-.18A10.92,10.92,0,0,0,1267.6,217Z"/></g><g id="RUBYROID"><path class="cls-10" d="M427.69,192.29v-25h19q7.08,0,11.06,3.11t4,9.32V180a11.36,11.36,0,0,1-3.79,8.94q-3.79,3.35-10.87,3.35ZM408.56,237h19.13V209.19h15L461.36,237h22.36L462.48,206A29.9,29.9,0,0,0,476,196.21q5.15-6.65,5.16-17.21v-.25q0-12.42-7.45-19.88-8.82-8.82-25.34-8.82H408.56Z"/><path class="cls-10" d="M550.21,236a31.27,31.27,0,0,0,12.05-7.33,32.61,32.61,0,0,0,7.64-12.24,50.44,50.44,0,0,0,2.67-17.27V150.06H553.44v49.82q0,10.43-5,15.65t-13.79,5.22q-8.82,0-13.79-5.4t-5-16.09v-49.2H496.79v49.69q0,19.26,10.06,28.95t27.58,9.69A48.52,48.52,0,0,0,550.21,236Z"/><path class="cls-10" d="M611.65,220.25V201.12h22.11q7.45,0,10.81,2.55a8.2,8.2,0,0,1,3.35,6.9v.25a7.87,7.87,0,0,1-3.6,7.14q-3.6,2.3-9.94,2.3Zm0-35V166.83h18.88q6.09,0,9.32,2.3a7.66,7.66,0,0,1,3.23,6.65V176q0,4.85-3.73,7t-10.06,2.17ZM593,237h41.3a55.4,55.4,0,0,0,13.33-1.49,30.71,30.71,0,0,0,10.29-4.47,20.25,20.25,0,0,0,6.58-7.45,22.56,22.56,0,0,0,2.29-10.44v-.25q0-8.7-4.33-13.6a29.36,29.36,0,0,0-11.87-7.76,24,24,0,0,0,4.38-3,19.62,19.62,0,0,0,3.58-4,20.53,20.53,0,0,0,2.47-5.16,21.36,21.36,0,0,0,.93-6.59v-.25a20.1,20.1,0,0,0-6-14.79q-7.69-7.7-22.69-7.7H593Z"/><path class="cls-10" d="M702.59,237h19.13V202.36l33.42-52.3H733.4L712.28,185l-20.75-34.91H669.17l33.42,52.68Z"/><path class="cls-10" d="M786,192.29v-25h19q7.08,0,11.06,3.11t4,9.32V180a11.36,11.36,0,0,1-3.79,8.94q-3.79,3.35-10.87,3.35ZM766.89,237H786V209.19h15L819.7,237h22.36L820.81,206a29.9,29.9,0,0,0,13.48-9.75q5.15-6.65,5.16-17.21v-.25q0-12.42-7.45-19.88-8.82-8.82-25.34-8.82H766.89Z"/><path class="cls-10" d="M887.33,218.7a26.22,26.22,0,0,1-13.79-14.6,28.93,28.93,0,0,1-1.93-10.56v-.25a28.44,28.44,0,0,1,1.93-10.5,27.48,27.48,0,0,1,5.34-8.63,24.3,24.3,0,0,1,8.2-5.84,26,26,0,0,1,10.62-2.11,25.52,25.52,0,0,1,10.56,2.18A26.06,26.06,0,0,1,922.12,183,29,29,0,0,1,924,193.54v.25a28.5,28.5,0,0,1-1.93,10.5,27.55,27.55,0,0,1-5.34,8.63,24.15,24.15,0,0,1-8.26,5.84A26.13,26.13,0,0,1,898,220.87,25.35,25.35,0,0,1,887.33,218.7ZM916.28,235a44.48,44.48,0,0,0,24.29-24A44,44,0,0,0,944,193.54v-.25a44.65,44.65,0,0,0-3.42-17.46,42.83,42.83,0,0,0-9.57-14.16,46,46,0,0,0-14.6-9.57,50.31,50.31,0,0,0-37.09,0,44.47,44.47,0,0,0-24.29,24,43.92,43.92,0,0,0-3.48,17.45v.25A44.59,44.59,0,0,0,855,211.24a42.78,42.78,0,0,0,9.57,14.16,46,46,0,0,0,14.6,9.57,50.31,50.31,0,0,0,37.09,0Z"/><path class="cls-10" d="M961.45,237h19.13v-87H961.45Z"/><path class="cls-10" d="M1021.51,219.75V167.32h14.78a28.7,28.7,0,0,1,10.68,1.93,23.7,23.7,0,0,1,8.26,5.41,24.82,24.82,0,0,1,5.34,8.32,28.37,28.37,0,0,1,1.93,10.56v.25a27.75,27.75,0,0,1-1.93,10.56,25.06,25.06,0,0,1-5.34,8.2,22.93,22.93,0,0,1-8.26,5.34,29.54,29.54,0,0,1-10.68,1.86ZM1002.37,237h33.92a50.57,50.57,0,0,0,18.7-3.35,45,45,0,0,0,14.66-9.19,40.51,40.51,0,0,0,9.5-13.79,43.65,43.65,0,0,0,3.35-17.15v-.25a43.21,43.21,0,0,0-3.35-17.08,40.67,40.67,0,0,0-9.5-13.73,44.17,44.17,0,0,0-14.66-9.13,51.43,51.43,0,0,0-18.7-3.29h-33.92Z"/></g><g id="ruby"><path class="cls-11" d="M277.08,291.35l-8.63,6.15-5.93,0L146.41,258.88l-4.4-3.23L139.59,248,140.8,130l2.43-7.23,2.94-2.1.72,1h.54v.74L265.7,288.08l1.49-203.51-.43-.6.44-.31V82.55l3.22,0,7.18,5.27L345,181.65l2.81,8.88-3.23,9.62ZM147.3,133.56l-1.14,111.32,41.28-55.11Zm44.13,61.79-39.84,53.19,63.48-20.09ZM219.07,234l-64.88,20.53,104.28,34.65Zm53.18,52.85,67.34-91-66.83,21.14Zm.56-76.71,63.13-20L273.1,169.74Zm.85-116.6-.51,69.3,65.69,21.4Z"/><path class="cls-10" d="M203,90.33l64.93.41L320,129.07l19.48,61.58L318.9,252,266,289.67l-64.92-.41L149,250.93l-19.48-61.58L150.09,128,203,90.33m-2.54-8L143.34,123l-22.27,66.28,21.06,66.56,56.34,41.4,70.1.44L325.66,257l22.27-66.27-21.06-66.55-56.34-41.4-70.11-.45Z"/></g><g id="leaf_origami"><polygon class="cls-12" points="179.04 27.94 187.63 33.22 195.74 46.56 207.78 56.37 219.9 54.17 220.41 34.2 206.7 23.73 193.5 24.73 179.04 27.94"/><path class="cls-13" d="M179,27.94l8.24,5.58,0,0,8.42,13,12,9.8,12.12-2.2L202.53,37.22l-8.68-8.47Z"/><polygon class="cls-10" points="202.53 37.22 215.47 54.97 217.47 67.18 220 62.75 219.9 54.17 202.53 37.22"/></g><g id="leaf_origami-2" data-name="leaf_origami"><polygon class="cls-14" points="301.07 76.52 304.15 71.36 312.04 66.44 317.79 59.2 316.39 52 304.5 51.84 298.37 60.08 299.05 67.93 301.07 76.52"/><path class="cls-13" d="M301.07,76.52l3.26-4.95,0,0L312,66.44l5.75-7.24-1.4-7.2-10,10.46-5,5.23Z"/><polygon class="cls-10" points="306.43 62.46 316.9 54.63 324.16 53.35 321.5 51.88 316.39 52 306.43 62.46"/></g><g id="leaf_origami-3" data-name="leaf_origami"><polygon class="cls-13" points="18.06 212.92 26.89 200.78 47.62 190.28 63.55 173.55 61.68 155.31 32.1 152.24 15 171.39 14.96 191.09 18.06 212.92"/><path class="cls-12" d="M18.06,212.92l9.22-11.59.07-.06,20.27-11,15.93-16.73-1.86-18.24L34.54,179.12,21,191Z"/><polygon class="cls-10" points="34.53 179.12 62.36 161.96 80.71 160.41 74.42 156.15 61.68 155.31 34.53 179.12"/></g><g id="leaf_origami-4" data-name="leaf_origami"><polygon class="cls-12" points="59.29 251.69 68.52 250.93 81.77 256.4 96.01 257.12 103.79 248.91 93.32 233.84 77.48 233.55 68.25 241.46 59.29 251.69"/><path class="cls-13" d="M59.29,251.69l9.13-.35h.05l13.3,5.06,14.24.71,7.78-8.21L81.72,245.8l-11-1.56Z"/><polygon class="cls-10" points="81.72 245.79 100.95 251.9 109.06 259.86 108.52 255.2 103.79 248.91 81.72 245.79"/></g><g id="leaf_origami-5" data-name="leaf_origami"><polygon class="cls-13" points="8.05 305.37 9.6 300.49 15.58 295.39 19.05 288.41 16.04 282.1 5.2 283.02 1.62 290.93 4.14 297.88 8.05 305.37"/><path class="cls-12" d="M8,305.37l1.77-4.71,0,0,5.75-5.25,3.47-7-3-6.31L9.52,292.34l-3.26,5.12Z"/><polygon class="cls-10" points="9.52 292.34 17.14 284.4 23.42 282.61 20.65 281.54 16.04 282.1 9.52 292.34"/></g><g id="leaf_origami-6" data-name="leaf_origami"><polygon class="cls-15" points="79.7 340.86 77 335.16 77.03 325.38 73.98 316.14 67.19 313.2 60.75 323.57 64.44 333.73 71.41 337.66 79.7 340.86"/><path class="cls-16" d="M79.7,340.86l-2.44-5.73a.1.1,0,0,1,0,0L77,325.38l-3-9.24-6.8-2.94L70.71,328l1.76,7.41Z"/><polygon class="cls-10" points="70.71 328.02 69.67 314.28 72.43 307.16 69.79 308.64 67.19 313.2 70.71 328.02"/></g><g id="leaf_origami-7" data-name="leaf_origami"><polygon class="cls-12" points="121.27 370.45 127.2 362.71 129.42 347.84 136.76 334.82 149.05 332.65 157.63 350.58 148.97 364.77 136.17 368.4 121.27 370.45"/><path class="cls-13" d="M121.27,370.46l5.49-7.89a.13.13,0,0,0,0-.05l2.64-14.68,7.34-13L149,332.65,139.59,354l-4.73,10.66Z"/><polygon class="cls-10" points="139.59 353.98 144.57 333.44 141.5 321.69 145.67 324.84 149.05 332.65 139.59 353.98"/></g><g id="leaf_origami-8" data-name="leaf_origami"><polygon class="cls-12" points="220.78 325.57 228.28 331.71 234.28 345.46 244.48 356.35 256.31 355.82 259.38 336.87 247.66 325.13 234.97 324.38 220.78 325.57"/><path class="cls-13" d="M220.78,325.57l7.13,6.37,0,0,6.34,13.47,10.2,10.89,11.83-.53L242,337.44l-7.17-9.19Z"/><polygon class="cls-10" points="241.96 337.44 251.99 356.01 252.32 367.9 255.3 364 256.31 355.82 241.96 337.44"/></g><g id="leaf_origami-9" data-name="leaf_origami"><polygon class="cls-12" points="324.81 382.29 325.82 376.36 331.77 369.27 334.62 360.53 330.26 353.87 318.16 357.12 315.34 366.96 319.25 374.45 324.81 382.29"/><path class="cls-17" d="M324.81,382.29l1.27-5.78v0l5.68-7.21,2.85-8.74-4.36-6.66L324.47,367l-2.9,6.55Z"/><polygon class="cls-10" points="324.47 366.98 331.85 356.3 338.67 352.97 335.38 352.29 330.26 353.87 324.47 366.98"/></g><g id="leaf_origami-10" data-name="leaf_origami"><polygon class="cls-12" points="395.59 315.17 387.14 310.5 379.56 297.72 367.82 288.77 355.43 291.85 353.94 311.9 367.35 321.39 380.78 319.44 395.59 315.17"/><path class="cls-13" d="M395.59,315.17l-8.09-5,0,0-7.91-12.43-11.73-8.95-12.39,3.08,16.79,15.73,8.4,7.86Z"/><polygon class="cls-10" points="372.22 307.57 359.95 290.72 358.51 278.63 355.73 283.26 355.43 291.85 372.22 307.57"/></g><g id="leaf_origami-11" data-name="leaf_origami"><polygon class="cls-12" points="506.29 347.39 509.31 338.99 508.99 325.04 512.31 311.54 520.22 306.64 528.09 320.76 524.04 335.63 515.96 341.97 506.29 347.39"/><path class="cls-17" d="M506.29,347.39,509,339a.17.17,0,0,0,0-.05V325l3.32-13.5,7.91-4.9-3.72,21.5-1.86,10.75Z"/><polygon class="cls-10" points="516.5 328.14 517.33 308.43 513.87 298.56 517.03 300.41 520.22 306.64 516.5 328.14"/></g><g id="leaf_origami-12" data-name="leaf_origami"><polygon class="cls-13" points="413 350 420.35 351.57 429.27 359.02 440.14 362.93 448.21 358.26 443.84 343.88 431.62 339.92 422.5 344.01 413 350"/><path class="cls-18" d="M413,350l7.17,1.87,0,0,9.06,7.13,10.87,3.91,8.08-4.67-16.34-7.65-8.17-3.83Z"/><polygon class="cls-17" points="431.87 350.61 445.27 359.97 449.58 368.17 450.32 364.36 448.21 358.26 431.87 350.61"/></g><g id="leaf_origami-13" data-name="leaf_origami"><polygon class="cls-12" points="508.36 261.42 500.1 257.76 490.21 247.71 478.04 240.7 468.81 243.18 473.41 259 487.1 266.43 497.5 264.84 508.36 261.42"/><path class="cls-13" d="M508.36,261.42l-8-3.91,0,0-10.05-9.77-12.17-7-9.23,2.48,18.26,12.34,9.13,6.17Z"/><polygon class="cls-10" points="487.07 255.51 472.18 242.27 467.5 232.74 466.58 236.4 468.81 243.18 487.07 255.51"/></g><g id="leaf_origami-14" data-name="leaf_origami"><polygon class="cls-12" points="464.82 299.42 462.33 287.9 467.42 270.45 466.07 252.42 453.96 243.8 435.75 259.12 437.92 279.1 449.85 289.6 464.82 299.42"/><path class="cls-17" d="M464.82,299.42,462.89,288a.16.16,0,0,1,0-.07l4.53-17.46-1.35-18L454,243.8,453.41,272l-.28,14.11Z"/><polygon class="cls-10" points="453.41 272.01 458.38 246.95 467.58 235.6 461.51 236.94 453.96 243.8 453.41 272.01"/></g><g id="leaf_origami-15" data-name="leaf_origami"><polygon class="cls-12" points="567.12 266.81 559.39 261.65 553.31 248.74 542.83 239.21 530.51 241.25 527.08 260.49 539.13 270.67 552.34 269.8 567.12 266.81"/><path class="cls-13" d="M567.12,266.81l-7.34-5.43,0,0-6.43-12.59-10.49-9.53-12.32,2,14.71,16.45,7.36,8.23Z"/><polygon class="cls-10" points="545.22 257.7 535 240.5 534.81 228.72 531.66 232.98 530.51 241.25 545.22 257.7"/></g><g id="leaf_origami-16" data-name="leaf_origami"><polygon class="cls-13" points="478.99 114.48 483.36 120.57 486.41 132.08 492.22 142.27 499.62 144.19 502.48 130.55 495.77 119.43 487.89 116.37 478.99 114.48"/><path class="cls-12" d="M479,114.48l4.13,6.19,0,0,3.28,11.37,5.81,10.19,7.4,1.93-8-16.63-4-8.32Z"/><polygon class="cls-10" points="491.6 127.56 496.92 143.49 496.53 152.49 498.58 150.15 499.62 144.19 491.6 127.56"/></g><g id="leaf_origami-17" data-name="leaf_origami"><polygon class="cls-12" points="524 104 521.32 113.58 511.06 124.48 505.09 138.44 510.24 149.79 528.85 145.84 535 130.1 530.68 117.42 524 104"/><path class="cls-17" d="M524,104l-3,9.3,0,.05-9.87,11.13-6,14,5.15,11.36L521.45,129l5.61-10.38Z"/><polygon class="cls-10" points="521.45 129.04 508.36 145.65 497.58 150.33 502.33 151.81 510.24 149.79 521.45 129.04"/></g><g id="leaf_origami-18" data-name="leaf_origami"><polygon class="cls-13" points="635.62 108.48 643.6 115.11 651.56 129.41 662.87 141 673.64 141.06 673.07 121.93 660.22 109.4 648.43 107.99 635.62 108.48"/><path class="cls-18" d="M635.62,108.48l7.68,6.85,0,0,8.23,14L662.87,141l10.76.06-16.46-19.43L649,111.92Z"/><polygon class="cls-10" points="657.18 121.63 669.71 141.04 672.13 153.15 674.17 149.34 673.64 141.06 657.18 121.63"/></g><g id="leaf_origami-19" data-name="leaf_origami"><polygon class="cls-13" points="693.81 79.31 693.29 92.97 682.82 110.95 679.24 131.55 690.02 144.93 714.21 133.37 717.46 110.33 707.38 94.91 693.81 79.31"/><path class="cls-12" d="M693.81,79.31,692.7,92.72a.19.19,0,0,1,0,.08L682.82,111l-3.59,20.6L690,144.93l8.53-31.42,4.27-15.71Z"/><polygon class="cls-10" points="698.55 113.5 686.09 140.05 672.86 149.92 679.85 150.29 690.02 144.93 698.55 113.5"/></g><g id="leaf_origami-20" data-name="leaf_origami"><polygon class="cls-12" points="690.8 9 695.4 9.98 700.98 14.64 707.77 17.08 712.82 14.16 710.08 5.17 702.45 2.7 696.74 5.25 690.8 9"/><path class="cls-17" d="M690.8,9l4.48,1.17h0L701,14.64l6.79,2.45,5-2.92L702.6,9.38,697.49,7Z"/><polygon class="cls-10" points="702.6 9.38 710.98 15.23 713.67 20.36 714.14 17.98 712.82 14.16 702.6 9.38"/></g><g id="leaf_origami-21" data-name="leaf_origami"><polygon class="cls-12" points="889.29 61.81 895.41 66.19 900.61 76.57 909.02 84.5 918.28 83.44 920.01 68.5 910.39 60 900.39 60.11 889.29 61.81"/><path class="cls-17" d="M889.29,61.81l5.83,4.58,0,0,5.46,10.15L909,84.5l9.27-1.06L906.35,69.9l-6-6.77Z"/><polygon class="cls-10" points="906.35 69.9 914.9 83.83 915.59 93.07 917.79 89.87 918.28 83.44 906.35 69.9"/></g><g id="leaf_origami-22" data-name="leaf_origami"><polygon class="cls-13" points="632.76 311.39 643.99 306.59 662.88 307.69 681 302.57 687.26 289.3 667.79 275.35 647.84 281.64 639.64 295.16 632.76 311.39"/><path class="cls-18" d="M632.76,311.39,644,307.13h.07l18.78.57L681,302.57l6.26-13.27-28.92,5.48-14.46,2.74Z"/><polygon class="cls-10" points="658.34 294.78 684.98 294.14 698.49 300.42 695.85 294.98 687.26 289.3 658.34 294.78"/></g><g id="leaf_origami-23" data-name="leaf_origami"><polygon class="cls-13" points="842.08 292.09 848.14 302.69 863.85 313.25 875.21 328.26 872.23 342.56 848.35 341.85 836.25 324.79 837.82 309.12 842.08 292.09"/><path class="cls-12" d="M842.08,292.09l6.42,10.2,0,.05,15.3,10.9,11.36,15-3,14.31-19.74-21.83-9.87-10.92Z"/><polygon class="cls-10" points="852.49 320.73 873.32 337.34 887.85 340.54 882.48 343.26 872.23 342.56 852.49 320.73"/></g><g id="leaf_origami-24" data-name="leaf_origami"><polygon class="cls-12" points="757.36 368.43 751.59 361.25 738.61 355.32 728.37 345.5 728.96 334.37 746.93 331.84 757.96 343.11 758.59 355.09 757.36 368.43"/><path class="cls-17" d="M757.36,368.43l-6-6.84,0,0-12.72-6.23-10.24-9.82.58-11.14,17.31,13.88,8.65,6.94Z"/><polygon class="cls-10" points="746.26 348.25 728.75 338.43 717.49 337.89 721.2 335.16 728.96 334.37 746.26 348.25"/></g><g id="leaf_origami-25" data-name="leaf_origami"><polygon class="cls-12" points="778.91 285.12 770.49 281.91 760.37 272.16 747.94 265.73 738.55 268.97 743.3 285.11 757.27 291.87 767.86 289.46 778.91 285.12"/><path class="cls-13" d="M778.91,285.12l-8.22-3.49,0,0-10.28-9.45-12.43-6.43L738.55,269l18.65,11.54,9.33,5.77Z"/><polygon class="cls-10" points="757.21 280.5 741.98 267.79 737.18 258.2 736.25 262.08 738.55 268.97 757.21 280.5"/></g><g id="leaf_origami-26" data-name="leaf_origami"><polygon class="cls-12" points="926.27 128.95 933.84 132.03 943.21 140.89 954.45 146.91 962.55 144.41 957.59 130.18 944.97 123.81 935.78 125.54 926.27 128.95"/><path class="cls-13" d="M926.27,128.95l7.39,3.32,0,0,9.5,8.59,11.24,6,8.1-2.5-17-10.7-8.48-5.35Z"/><polygon class="cls-10" points="945.58 133.72 959.59 145.32 964.28 153.85 964.91 150.5 962.55 144.41 945.58 133.72"/></g><g id="leaf_origami-27" data-name="leaf_origami"><polygon class="cls-17" points="963.07 93.26 965.91 103.64 962.32 119.62 964.5 135.94 975.77 143.44 991.19 129.03 988.18 110.95 976.96 101.76 963.07 93.26"/><path class="cls-13" d="M963.07,93.26l2.35,10.33a.15.15,0,0,1,0,.06l-3.1,16,2.18,16.32,11.27,7.49-1-25.62L974.22,105Z"/><polygon class="cls-10" points="974.73 117.81 971.65 140.7 964.06 151.25 969.4 149.87 975.77 143.44 974.73 117.81"/></g><g id="leaf_origami-28" data-name="leaf_origami"><polygon class="cls-12" points="952.27 260.46 962.68 256.73 975.58 246.05 991.04 238.77 1002.19 241.79 995.37 258.97 978 266.66 965.35 264.57 952.27 260.46"/><path class="cls-13" d="M952.27,260.46l10.17-4,.06,0L975.57,246,991,238.77l11.14,3L978.85,254.7l-11.67,6.46Z"/><polygon class="cls-10" points="978.85 254.7 998.12 240.69 1004.57 230.4 1005.44 234.44 1002.19 241.79 978.85 254.7"/></g><g id="leaf_origami-29" data-name="leaf_origami"><polygon class="cls-13" points="1071 268.4 1057.89 264.02 1042.48 249.91 1023.24 240.91 1008.25 246.25 1014.83 270.19 1036.5 279.61 1053.33 275.47 1071 268.4"/><path class="cls-12" d="M1071,268.4l-12.76-4.81-.07,0-15.69-13.64-19.24-9-15,5.33L1037,262.58l14.39,8.17Z"/><polygon class="cls-10" points="1037.02 262.58 1013.72 244.3 1006.68 230.18 1005 236.04 1008.25 246.25 1037.02 262.58"/></g><g id="leaf_origami-30" data-name="leaf_origami"><polygon class="cls-12" points="963 340.69 959.01 347.06 949.16 353.3 941.82 362.29 943.22 371 957.76 370.82 965.6 360.6 965.1 351.07 963 340.69"/><path class="cls-13" d="M963,340.69l-4.2,6.12,0,0-9.61,6.46-7.34,9,1.4,8.71,12.63-13,6.32-6.52Z"/><polygon class="cls-10" points="955.85 357.96 942.71 367.82 933.78 369.61 936.97 371.32 943.22 371 955.85 357.96"/></g><g id="leaf_origami-31" data-name="leaf_origami"><polygon class="cls-12" points="1027.28 334.5 1029.27 328.63 1036.43 322.32 1040.73 313.87 1037.44 306.48 1024.74 308 1020.28 317.56 1022.98 325.73 1027.28 334.5"/><path class="cls-17" d="M1027.28,334.5l2.23-5.68,0,0,6.9-6.47,4.3-8.44-3.29-7.39-8,12.44-4,6.22Z"/><polygon class="cls-10" points="1029.46 318.92 1038.64 309.18 1046.05 306.8 1042.85 305.63 1037.44 306.48 1029.46 318.92"/></g><g id="leaf_origami-32" data-name="leaf_origami"><polygon class="cls-13" points="1158.77 362.01 1155.43 348.69 1140.64 333.62 1132.61 314.24 1141.33 298.35 1169.38 303.65 1177.55 325.51 1170 343.23 1158.77 362.01"/><path class="cls-18" d="M1158.77,362l-3.92-12.93a.18.18,0,0,0,0-.07l-14.18-15.4-8-19.38,8.72-15.89,15.49,28.79,7.75,14.4Z"/><polygon class="cls-10" points="1156.82 327.15 1138.15 304.15 1122.08 297.75 1129.43 295.63 1141.33 298.35 1156.82 327.15"/></g><g id="leaf_origami-33" data-name="leaf_origami"><polygon class="cls-17" points="1210.87 287 1220.76 287.01 1234.28 294.14 1249.33 296.2 1258.44 288 1248.86 270.71 1232.06 268.96 1221.44 276.71 1210.87 287"/><path class="cls-12" d="M1210.87,287l9.74.45h.06l13.61,6.68,15.05,2.06,9.11-8.2-23.12-5.37-11.56-2.68Z"/><polygon class="cls-10" points="1235.32 282.63 1255.12 290.99 1262.92 300.35 1262.83 295.25 1258.44 288 1235.32 282.63"/></g><g id="leaf_origami-34" data-name="leaf_origami"><polygon class="cls-13" points="1236.17 141.74 1241.86 133.87 1245.73 119.21 1253.27 106.11 1263.03 103.39 1267.01 120.52 1258.29 134.83 1247.92 139 1236.17 141.74"/><path class="cls-18" d="M1236.17,141.74l5.37-8,0-.05,4.17-14.49,7.54-13.09,9.76-2.72-10.37,21.33-5.18,10.66Z"/><polygon class="cls-10" points="1252.66 124.72 1259.47 104.38 1258.82 93.03 1261.57 95.91 1263.03 103.39 1252.66 124.72"/></g><g id="leaf_origami-35" data-name="leaf_origami"><polygon class="cls-12" points="1362.91 186.47 1356.78 193.09 1343.82 198.44 1333.17 207.46 1332.82 217.85 1349.89 220.44 1361.42 210.09 1363 198.93 1362.91 186.47"/><path class="cls-13" d="M1362.91,186.47l-6.32,6.3,0,0-12.73,5.64-10.65,9-.35,10.39,17.77-12.7,8.89-6.35Z"/><polygon class="cls-10" points="1350.59 205.14 1332.95 214.06 1322.08 214.41 1325.43 217 1332.82 217.85 1350.59 205.14"/></g><g id="leaf_origami-36" data-name="leaf_origami"><polygon class="cls-12" points="1049.51 95.33 1046.81 99.85 1039.87 104.11 1034.83 110.43 1036.1 116.81 1046.59 117.1 1051.97 109.89 1051.32 102.94 1049.51 95.33"/><path class="cls-17" d="M1049.51,95.33l-2.86,4.33,0,0-6.76,4.42-5,6.33,1.26,6.38,8.75-9.12,4.37-4.56Z"/><polygon class="cls-10" points="1044.84 107.69 1035.64 114.49 1029.24 115.53 1031.59 116.86 1036.1 116.81 1044.84 107.69"/></g><g id="leaf_origami-37" data-name="leaf_origami"><polygon class="cls-13" points="918.81 43.29 919.82 37.35 925.77 30.27 928.62 21.53 924.26 14.87 912.16 18.12 909.34 27.96 913.25 35.45 918.81 43.29"/><path class="cls-18" d="M918.81,43.29l1.27-5.78v0l5.68-7.21,2.85-8.74-4.36-6.66L918.47,28l-2.9,6.55Z"/><polygon class="cls-10" points="918.47 27.98 925.85 17.3 932.67 13.97 929.38 13.29 924.26 14.87 918.47 27.98"/></g><g id="leaf_origami-38" data-name="leaf_origami"><polygon class="cls-14" points="604.05 374.37 605.6 369.49 611.58 364.39 615.05 357.41 612.04 351.1 601.2 352.02 597.62 359.93 600.14 366.88 604.05 374.37"/><path class="cls-13" d="M604,374.37l1.77-4.71,0,0,5.75-5.25,3.47-7-3-6.31-6.52,10.23-3.26,5.12Z"/><polygon class="cls-10" points="605.52 361.34 613.14 353.4 619.42 351.61 616.65 350.54 612.04 351.1 605.52 361.34"/></g><g id="leaf_origami-39" data-name="leaf_origami"><polygon class="cls-17" points="1329.51 87.33 1326.81 91.85 1319.87 96.11 1314.83 102.43 1316.1 108.81 1326.59 109.1 1331.97 101.89 1331.32 94.94 1329.51 87.33"/><path class="cls-12" d="M1329.51,87.33l-2.86,4.33,0,0-6.76,4.42-5,6.33,1.26,6.38,8.75-9.12,4.37-4.56Z"/><polygon class="cls-10" points="1324.84 99.69 1315.64 106.49 1309.24 107.53 1311.59 108.86 1316.1 108.81 1324.84 99.69"/></g><g id="leaf_origami-40" data-name="leaf_origami"><polygon class="cls-17" points="1315.72 306.36 1314.2 311.4 1308.51 317.22 1305.16 324.58 1307.94 330.46 1318.19 328.19 1321.65 319.89 1319.33 313.31 1315.72 306.36"/><path class="cls-12" d="M1315.72,306.36l-1.71,4.9,0,0-5.48,5.93-3.35,7.36,2.78,5.88,6.26-11,3.13-5.49Z"/><polygon class="cls-10" points="1314.2 319.49 1306.93 328.32 1300.98 330.89 1303.58 331.61 1307.94 330.46 1314.2 319.49"/></g><g id="leaf_origami-41" data-name="leaf_origami"><polygon class="cls-12" points="1326.57 267.92 1328.12 272.95 1326.63 280.95 1327.95 288.93 1333.53 292.27 1340.78 284.67 1339.03 275.85 1333.44 271.67 1326.57 267.92"/><path class="cls-13" d="M1326.57,267.92l1.3,5a.08.08,0,0,1,0,0l-1.25,8,1.32,8,5.58,3.34-.91-12.61-.45-6.3Z"/><polygon class="cls-10" points="1332.62 279.66 1331.49 291.05 1327.98 296.49 1330.54 295.64 1333.53 292.27 1332.62 279.66"/></g><g id="leaf_origami-42" data-name="leaf_origami"><polygon class="cls-15" points="837.27 252.01 845.83 249.08 856.42 240.69 869.14 234.97 878.3 237.35 872.69 250.84 858.42 256.88 848.02 255.24 837.27 252.01"/><path class="cls-12" d="M837.27,252l8.36-3.15,0,0,10.75-8.14L869.14,235l9.16,2.37-19.19,10.14-9.59,5.07Z"/><polygon class="cls-10" points="859.11 247.49 874.96 236.48 880.26 228.4 880.97 231.57 878.3 237.35 859.11 247.49"/></g><g id="leaf_origami-43" data-name="leaf_origami"><polygon class="cls-12" points="897.35 297.43 896.26 285.08 886.09 268.96 881.94 250.39 890.98 238.13 913.14 248.23 917.09 269.03 908.78 283.12 897.35 297.43"/><path class="cls-13" d="M897.34,297.43l-1.6-12.11a.18.18,0,0,0,0-.07L886.09,269l-4.14-18.58,9-12.26,9.06,28.3,4.53,14.15Z"/><polygon class="cls-10" points="900.04 266.43 887.68 242.6 875.41 233.86 881.65 233.43 890.98 238.13 900.04 266.43"/></g><polygon class="cls-19" points="12.19 32.96 14.46 27.13 16.56 33.3 12.19 32.96"/><polygon class="cls-20" points="14.46 27.13 16.56 33.3 28.21 27.02 14.46 27.13"/><polygon class="cls-21" points="16.56 33.3 28.21 27.02 19.65 46.97 16.56 33.3"/><polygon class="cls-20" points="28.21 27.02 19.65 46.97 37.5 42.56 28.21 27.02"/><polygon class="cls-21" points="19.65 46.97 37.5 42.56 65.94 91.53 19.65 46.97"/><polygon class="cls-20" points="19.65 46.97 21.91 65.54 65.94 91.53 19.65 46.97"/><polygon class="cls-19" points="38.16 75.12 34.6 80.04 43.86 78.48 38.16 75.12"/><polygon class="cls-19" points="37.5 42.56 60.7 82.48 77.67 43.09 37.5 42.56"/><polygon class="cls-20" points="65.12 72.18 60.7 82.48 95.25 94.63 65.12 72.18"/><polygon class="cls-21" points="60.7 82.48 65.94 91.53 95.25 94.63 60.7 82.48"/><polygon class="cls-20" points="65.94 91.53 75.13 92.5 79.64 100.32 65.94 91.53"/><polygon class="cls-21" points="37.5 42.56 62.7 19.47 109.68 43.48 37.5 42.56"/><polygon class="cls-20" points="37.5 42.56 53.43 17.57 59.9 22 37.5 42.56"/><polygon class="cls-20" points="77.67 43.09 91.34 43.22 97.27 47.71 77.67 43.09"/><polygon class="cls-22" points="416.87 52.16 429.77 39.59 439.26 44.21 437.19 51.51 416.87 52.16"/><polygon class="cls-23" points="439.26 44.21 444.49 48.47 437.19 51.51 439.26 44.21"/><polygon class="cls-24" points="416.87 52.16 437.19 51.51 436.82 65.87 416.87 52.16"/><polygon class="cls-23" points="416.87 52.16 425.14 75.73 436.34 78.77 436.82 65.87 416.87 52.16"/><polygon class="cls-23" points="373 74 387 55 412 67 425.14 75.73 399.03 78.63 373 74"/><polygon class="cls-22" points="373 74 387 55 352.19 11.02 373 74"/><polygon class="cls-22" points="372 36 374 14 400 47 372 36"/><polygon class="cls-22" points="399.1 78.65 376.1 100.06 425.14 75.73 399.1 78.65"/><polygon class="cls-24" points="376.1 100.06 405.18 102.13 436.34 78.77 425.14 75.73 376.1 100.06"/><polygon class="cls-23" points="405.18 102.13 414.16 95.41 411.03 107 405.18 102.13"/><polygon class="cls-24" points="358.46 97.02 399.1 78.65 376.1 100.06 358.46 97.02"/><polygon class="cls-22" points="417 52 412 67 425 76 417 52"/><polygon class="cls-24" points="372 36 417 53 412 67 387 55 372 36"/></g></svg>