<?xml version="1.0" encoding="UTF-8"?>
<svg width="2512px" height="1150px" viewBox="0 0 2512 1150" version="1.1" xmlns="http://www.w3.org/2000/svg" xmlns:xlink="http://www.w3.org/1999/xlink" xmlns:sketch="http://www.bohemiancoding.com/sketch/ns">
    <!-- Generator: Sketch 3.3 (11970) - http://www.bohemiancoding.com/sketch -->
    <title>Slice 1</title>
    <desc>Created with Sketch.</desc>
    <defs></defs>
    <g id="Page-1" stroke="none" stroke-width="1" fill="none" fill-rule="evenodd" sketch:type="MSPage">
        <rect id="Rectangle-1" fill="#2388DB" sketch:type="MSShapeGroup" x="-930" y="-329" width="5127" height="1965"></rect>
        <g id="LogoB" sketch:type="MSLayerGroup" transform="translate(83.000000, 115.000000)" fill="#2C3A42">
            <g id="Layer_2" sketch:type="MSShapeGroup">
                <g id="Layer_1-2">
                    <path d="M1088.603,17.4026471 C1082.39092,16.0545741 1076.05222,15.3736911 1069.69508,15.3716153 C1043.05058,15.2929332 1019.17535,31.7872607 1009.85987,56.709085 C1007.34679,61.3685107 999.448545,75.1078431 989.755242,91.595042 C984.974923,84.2328605 978.940148,77.7632845 971.924351,72.4794491 L971.206328,71.5236695 C963.380842,58.9597002 951.899099,49.0808935 938.296965,43.2086975 C929.778532,39.6161538 920.61833,37.7871439 911.371123,37.832437 C906.670977,37.9008772 901.985892,38.3806039 897.369685,39.2661064 C877.107761,43.9781379 857.987939,52.6693585 841.124593,64.833212 C820.92153,48.2352378 794.570337,41.0604368 768.723995,45.1202568 C703.84205,17.1016932 633.819942,2.90070844 563.130231,3.42436975 C413.422549,3.42436975 283.221143,63.8774323 216.086043,153.123357 C208.666478,153.123357 202.563287,152.048105 197.6568,151.570215 C190.596246,150.85338 185.091407,150.37549 179.347227,150.37549 C175.334608,150.388485 171.330647,150.748246 167.380186,151.450742 C150.762509,154.214534 136.383462,164.550322 128.487303,179.407297 L127.769281,180.840966 C125.256202,185.85881 110.297401,214.771144 91.8681577,250.254463 C20.3052527,388.245149 11.9283241,404.851821 9.65458629,410.467026 C5.58090751,419.649148 3.4618707,429.575873 3.43172498,439.618305 C2.62768399,477.527538 25.4738688,511.954403 60.7538512,525.996891 C70.4155179,530.435373 80.8776799,532.873861 91.5091465,533.165238 C95.0008746,533.150536 98.4846122,532.830722 101.920472,532.209458 C118.53133,528.56312 133.223028,518.954913 143.206763,505.208683 C147.99358,498.996116 157.208201,487.287815 168.816231,472.712176 C187.422614,491.869415 212.933861,502.797013 239.661114,503.058179 C243.91284,503.071078 248.157492,502.71128 252.346177,501.982927 C262.494214,500.102678 272.172127,496.246035 280.827735,490.633044 C316.534927,516.570703 356.112492,536.729936 398.104736,550.369272 C402.837411,551.939513 406.695094,555.416735 408.74166,559.957137 C410.788226,564.497538 410.836611,569.686108 408.875073,574.263763 C401.824362,590.792923 392.521945,606.271305 381.231208,620.260658 C377.076626,626.113965 376.790719,633.868592 380.50303,640.010986 C384.215341,646.153379 391.220322,649.51614 398.344077,648.57563 C444.074772,640.99749 486.587334,620.233185 520.647236,588.839402 C528.962372,580.954761 540.056513,576.66182 551.522201,576.892157 L563.489242,576.892157 C734.737599,576.892157 880.496158,497.801391 935.185535,387.050425 L938.296965,387.050425 C971.325999,381.076802 1001.12393,341.770364 1006.15009,310.468581 C1014.81486,304.529003 1021.9499,296.627944 1026.97274,287.410397 C1034.63165,274.029482 1122.70907,125.04733 1130.84665,113.100084 C1140.13112,101.593806 1145.3852,87.3683056 1145.80546,72.5989216 C1145.44644,67.2226611 1143.77106,22.4204902 1088.603,17.4026471 L1088.603,17.4026471 Z M650.728971,382.271527 C642.631196,382.092408 634.588923,380.888063 626.794889,378.687353 C619.33581,378.002442 613.65691,371.70877 613.750814,364.231186 C613.895454,361.160132 614.542233,358.133369 615.665541,355.270752 C620.931039,343.323506 636.248851,314.530644 655.396117,281.078357 L577.849691,303.061289 C554.633632,343.562451 534.648674,378.56788 525.673393,396.249804 C522.632731,402.531669 516.757364,406.975341 509.876899,408.197049 C497.072165,410.467026 477.565888,403.896041 477.565888,389.200929 C477.524207,386.717888 478.188089,384.273875 479.480615,382.152054 C484.02809,373.908455 497.909858,350.372381 515.381738,320.743212 C510.353408,322.660773 505.194493,324.217865 499.944255,325.402638 C487.82671,325.817439 477.559482,316.571084 476.728195,304.494958 C476.674888,300.69346 478.883455,297.221895 482.352705,295.653996 C488.336225,293.145075 511.552285,286.335145 540.512524,278.449963 C570.071115,228.271531 601.903444,174.269981 616.862245,149.658655 C593.646186,155.990696 572.344853,162.322736 545.778022,170.32739 C491.010373,247.397488 444.37023,329.913678 406.601335,416.560121 C400.617815,431.135761 396.070339,437.587274 389.368796,438.781998 C370.221531,442.246699 356.339763,420.38324 356.339763,402.940261 C356.319027,399.298738 356.843387,395.674556 357.895478,392.18774 C363.041306,374.505817 440.707402,242.369281 470.146323,193.146629 L443.340151,200.912339 C381.70989,278.211018 313.617427,370.204809 266.706626,438.662526 C261.916795,446.852785 253.869814,452.628343 244.567601,454.552362 C230.685833,457.061284 201.007571,445.830873 201.007571,430.657871 C201.063349,427.957663 201.424653,425.272401 202.084605,422.653217 C205.076365,413.931727 241.45617,329.464701 251.987166,299.477115 C216.086043,336.633049 121.426749,454.791307 105.749925,475.460042 C103.001036,479.891087 98.756988,483.195969 93.7828843,484.778894 C88.4157261,485.064444 83.0737545,483.865523 78.3454014,481.314192 C61.3088942,474.441076 50.4690363,457.585685 51.2998889,439.259888 C51.3571785,435.447361 52.256117,431.694382 53.9326379,428.268422 C56.5653869,421.458492 163.072052,215.965868 170.252276,201.270756 C171.272445,199.250806 173.261639,197.896781 175.517774,197.686583 C188.322853,197.715495 201.113263,198.553477 213.812305,200.195504 C219.720613,202.770946 223.660301,208.462476 223.98429,214.890616 C224.014609,216.932456 223.520195,218.947975 222.548245,220.744767 C201.964935,257.781228 140.813355,362.319627 120.469386,405.568655 C172.645684,344.99612 281.426087,204.496513 293.393128,191.593487 C296.635051,187.583363 301.153394,184.800957 306.197861,183.708305 C313.737097,182.394108 350.834924,192.19085 350.834924,199.00078 C350.777161,200.468329 350.276609,201.884215 349.398879,203.062843 C343.056348,215.846396 281.904768,318.831653 264.193548,383.824669 C283.460484,356.943366 359.929875,258.498063 398.942429,208.439104 C390.210326,203.970638 384.188821,195.554475 382.786924,185.85881 C382.786924,178.690462 388.411433,172.836312 398.583418,169.610556 C402.891553,168.176886 425.150249,163.278515 454.349829,157.065948 C456.110383,156.467156 457.909562,155.988169 459.734997,155.632278 L461.649724,155.632278 C502.217993,146.791317 553.91561,136.636158 592.210141,129.826228 C607.971172,126.353393 623.972962,124.07691 640.078305,123.016298 C644.340466,123.449574 647.828425,126.593217 648.694574,130.782007 C659.22557,132.813039 670.8336,137.830882 670.8336,145.238175 C670.570434,148.235704 669.540247,151.115456 667.84184,153.601246 C647.61754,185.739337 624.28181,224.32894 602.142785,261.126457 C630.624342,253.719164 658.387877,246.550817 676.458109,242.249809 C713.555936,178.332045 753.765194,110.830107 756.397943,106.648571 C761.663441,97.4491923 766.210916,92.909239 773.630482,91.595042 C786.794227,89.2055929 812.284024,94.1039636 812.284024,109.396438 C811.918236,114.665476 809.814097,119.665042 806.300504,123.61366 C770.399381,161.486429 679.928551,333.048875 660.781285,372.474785 C659.289072,377.217261 655.513878,380.896474 650.728971,382.271527 L650.728971,382.271527 Z M746.465299,367.456942 C742.364963,368.275994 738.115733,367.155162 734.955739,364.421031 C731.795745,361.6869 730.080502,357.647072 730.309793,353.478665 C730.309793,341.531419 743.473538,315.964314 757.714317,313.33592 C762.267175,312.789283 766.836619,314.214726 770.26777,317.251981 C773.698922,320.289236 775.663464,324.647678 775.664879,329.225756 C775.664879,339.61986 757.355306,365.306438 746.465299,367.33747 L746.465299,367.456942 Z M783.204115,298.76028 C783.204115,299.596587 781.76807,299.835532 780.212354,300.074477 C773.510811,301.269202 760.706077,297.923973 760.347066,292.069823 L760.347066,290.158263 C760.347066,259.81226 792.658077,233.05043 851.89493,196.969748 C908.499033,162.920098 928.00531,138.428245 928.00531,126.839416 C928.00531,120.865794 922.739812,118.356872 914.123543,119.910014 C883.088696,129.483143 856.567122,149.935472 839.449207,177.495738 C837.160971,183.305117 832.295571,187.720892 826.285462,189.442983 C815.395455,191.354542 804.505447,178.690462 804.505447,169.371611 C804.525593,167.909944 804.767687,166.459783 805.22347,165.070602 C812.403694,148.463931 869.725821,92.0729318 905.746614,85.6214192 C910.567164,84.6127844 915.58203,85.1134414 920.107063,87.0550887 C930.279048,90.8782073 932.074104,102.944925 942.246089,109.635383 C950.085299,115.396743 954.564976,124.654335 954.21313,134.366181 C954.21313,148.941821 945.237849,170.207918 914.841565,197.56711 C894.976277,216.085341 810.249627,257.9007 783.204115,298.640808 L783.204115,298.76028 Z M929.441355,339.61986 C925.352104,340.548525 921.062689,339.53053 917.829494,336.864048 C914.596299,334.197566 912.785261,330.184393 912.926839,326 C912.926839,314.052754 926.090584,288.485649 940.331362,285.857255 C944.822775,285.316819 949.333892,286.695526 952.752567,289.653476 C956.171241,292.611426 958.179386,296.873401 958.281924,301.388674 C958.760606,311.782778 940.810044,337.947246 929.441355,339.500387 L929.441355,339.61986 Z M1092.43245,84.3072222 C1084.89322,94.7013259 991.909309,251.56866 985.566777,263.515906 C982.941579,268.884029 977.926138,272.694776 972.044021,273.790537 C958.880276,276.179986 957.08522,261.843291 957.08522,250.61288 C957.004193,247.707887 957.534166,244.818206 958.640935,242.130336 C962.709729,233.169902 1050.1888,85.024057 1054.37726,76.7804575 C1058.56573,68.5368581 1061.55749,63.8774323 1066.82299,63.1605976 C1071.39794,62.6740885 1076.0236,63.0386679 1080.46541,64.2358497 C1084.53421,65.3111018 1097.69795,64.2358497 1097.69795,72.0015593 C1097.19281,76.5310649 1095.3613,80.8113749 1092.43245,84.3072222 L1092.43245,84.3072222 Z" id="Shape"></path>
                </g>
            </g>
        </g>
        <path d="M1425.85645,776 L1425.85645,481.217773 L1472.10889,481.217773 L1472.10889,607.641113 L1524.73389,607.641113 L1524.73389,481.217773 L1572.01416,481.217773 L1572.01416,776 L1524.73389,776 L1524.73389,649.782227 L1472.10889,649.782227 L1472.10889,776 L1425.85645,776 Z" id="Path" fill="#2C3A42" sketch:type="MSShapeGroup"></path>
        <path d="M1593.39307,776 L1640.46777,481.217773 L1708.30469,481.217773 L1755.37939,776 L1708.71582,776 L1700.69873,722.552734 L1643.75684,722.552734 L1635.73975,776 L1593.39307,776 Z" id="Path" fill="#2C3A42" sketch:type="MSShapeGroup"></path>
        <path d="M1649.71826,682.467285 L1694.32617,682.467285 L1672.125,533.431641 L1649.71826,682.467285 Z" id="Path" fill="#2388DB" sketch:type="MSShapeGroup"></path>
        <path d="M1413.48047,127.742188 L1445.13281,127.742188 L1462.62109,291.207031 L1478.23047,127.742188 L1509.59375,127.742188 L1525.92578,292.363281 L1542.83594,127.742188 L1571.16406,127.742188 L1548.18359,335 L1504.96875,335 L1493.11719,224.578125 L1481.26562,335 L1436.46094,335 L1413.48047,127.742188 Z M1587.49609,331 L1587.49609,123.742188 L1620.01562,123.742188 L1620.01562,212.628906 L1657.01562,212.628906 L1657.01562,123.742188 L1690.25781,123.742188 L1690.25781,331 L1657.01562,331 L1657.01562,242.257812 L1620.01562,242.257812 L1620.01562,331 L1587.49609,331 Z M1705.28906,335 L1738.38672,127.742188 L1786.08203,127.742188 L1819.17969,335 L1786.37109,335 L1780.73438,297.421875 L1740.69922,297.421875 L1735.0625,335 L1705.28906,335 Z M1744.89062,269.238281 L1776.25391,269.238281 L1760.64453,164.453125 L1744.89062,269.238281 Z M1825.25,157.371094 L1825.25,127.742188 L1925.98828,127.742188 L1925.98828,157.371094 L1891.87891,157.371094 L1891.87891,335 L1859.35938,335 L1859.35938,157.371094 L1825.25,157.371094 Z M1977.58594,157.371094 L1977.58594,127.742188 L2078.32422,127.742188 L2078.32422,157.371094 L2044.21484,157.371094 L2044.21484,335 L2011.69531,335 L2011.69531,157.371094 L1977.58594,157.371094 Z M2093.06641,335 L2093.06641,127.742188 L2125.58594,127.742188 L2125.58594,216.628906 L2162.58594,216.628906 L2162.58594,127.742188 L2195.82812,127.742188 L2195.82812,335 L2162.58594,335 L2162.58594,246.257812 L2125.58594,246.257812 L2125.58594,335 L2093.06641,335 Z M2219.38672,335 L2219.38672,127.742188 L2308.12891,127.742188 L2308.12891,157.371094 L2251.90625,157.371094 L2251.90625,215.183594 L2296.56641,215.183594 L2296.56641,244.667969 L2251.90625,244.667969 L2251.90625,305.371094 L2308.12891,305.371094 L2308.12891,335 L2219.38672,335 Z M1772.85254,705.285156 L1772.85254,551.932617 C1772.85254,528.086795 1778.67686,509.791568 1790.32568,497.046387 C1801.9745,484.301206 1819.17339,477.928711 1841.92285,477.928711 C1864.67231,477.928711 1881.8712,484.301206 1893.52002,497.046387 C1905.16884,509.791568 1910.99316,528.086795 1910.99316,551.932617 L1910.99316,580.711914 L1867.20752,580.711914 L1867.20752,549.054688 C1867.20752,538.365181 1865.04909,530.862082 1860.73218,526.545166 C1856.41526,522.22825 1850.6252,520.069824 1843.36182,520.069824 C1836.09843,520.069824 1830.27411,522.22825 1825.88867,526.545166 C1821.50323,530.862082 1819.31055,538.365181 1819.31055,549.054688 L1819.31055,708.163086 C1819.31055,718.852593 1821.46897,726.321431 1825.78589,730.569824 C1830.1028,734.818218 1835.96139,736.942383 1843.36182,736.942383 C1850.6252,736.942383 1856.41526,734.818218 1860.73218,730.569824 C1865.04909,726.321431 1867.20752,718.852593 1867.20752,708.163086 L1867.20752,666.021973 L1910.99316,666.021973 L1910.99316,705.285156 C1910.99316,729.130979 1905.16884,747.426206 1893.52002,760.171387 C1881.8712,772.916568 1864.67231,779.289062 1841.92285,779.289062 C1819.17339,779.289062 1801.9745,772.916568 1790.32568,760.171387 C1778.67686,747.426206 1772.85254,729.130979 1772.85254,705.285156 L1772.85254,705.285156 Z M1939.15576,776 L1939.15576,481.217773 L1985.4082,481.217773 L1985.4082,609.696777 L2046.87256,481.217773 L2092.30273,481.217773 L2027.96045,612.574707 L2092.30273,776 L2044.81689,776 L1999.79785,658.621582 L1985.4082,685.550781 L1985.4082,776 L1939.15576,776 Z M2104.84229,581.123047 L2104.84229,551.932617 C2104.84229,528.086795 2110.52957,509.791568 2121.9043,497.046387 C2133.27903,484.301206 2150.34087,477.928711 2173.09033,477.928711 C2195.83979,477.928711 2212.90164,484.301206 2224.27637,497.046387 C2235.6511,509.791568 2241.33838,528.086795 2241.33838,551.932617 C2241.33838,564.814843 2240.00221,575.983839 2237.32983,585.439941 C2234.65746,594.896043 2231.26565,603.392703 2227.1543,610.930176 C2223.04295,618.467648 2218.62331,625.422576 2213.89526,631.795166 C2209.16721,638.167756 2204.74758,644.437469 2200.63623,650.604492 C2196.52488,656.771515 2193.13307,663.349574 2190.46069,670.338867 C2187.78832,677.32816 2186.45215,685.34517 2186.45215,694.390137 C2186.45215,700.55716 2187.00032,706.038876 2188.09668,710.835449 L2146.9834,710.835449 C2145.33886,705.764786 2144.44808,699.666377 2144.31104,692.540039 C2144.31104,681.850532 2145.57868,672.600137 2148.11401,664.788574 C2150.64935,656.977012 2153.76707,649.782259 2157.46729,643.204102 C2161.1675,636.625944 2165.24453,630.32197 2169.69849,624.291992 C2174.15245,618.262014 2178.19521,611.718216 2181.8269,604.6604 C2185.4586,597.602585 2188.54206,589.654097 2191.07739,580.814697 C2193.61272,571.975298 2194.88037,561.388734 2194.88037,549.054688 C2194.88037,538.365181 2192.85899,530.862082 2188.81616,526.545166 C2184.77334,522.22825 2179.12032,520.069824 2171.85693,520.069824 C2164.59355,520.069824 2158.90627,522.22825 2154.79492,526.545166 C2150.68357,530.862082 2148.62793,538.365181 2148.62793,549.054688 L2148.62793,581.123047 L2104.84229,581.123047 Z M2144.92773,776 L2144.92773,731.39209 L2189.53564,731.39209 L2189.53564,776 L2144.92773,776 Z M2264.77295,604.146484 L2264.77295,481.217773 L2311.02539,481.217773 L2311.02539,604.146484 L2305.26953,710.835449 L2270.73438,710.835449 L2264.77295,604.146484 Z M2265.59521,776 L2265.59521,731.39209 L2310.20312,731.39209 L2310.20312,776 L2265.59521,776 Z" id="WHAT-THE-" fill="#FFFFFF" sketch:type="MSShapeGroup"></path>
        <path d="M125.63,971.537 L125.63,1064 L137.096,1064 L137.096,961.1 L88.88,961.1 L88.88,1064 L100.346,1064 L100.346,971.537 L125.63,971.537 Z M160.322,1006.67 L160.322,971.537 L191.192,971.537 L191.192,961.1 L148.856,961.1 L148.856,1064 L191.192,1064 L191.192,1053.563 L160.322,1053.563 L160.322,1016.96 L185.459,1016.96 L185.459,1006.67 L160.322,1006.67 Z M201.776,961.1 L201.776,1064 L213.242,1064 L213.242,1023.428 L223.385,1023.428 C239.702,1023.428 247.346,1014.902 247.346,998.585 L247.346,986.237 C247.346,970.655 240.437,961.1 224.267,961.1 L201.776,961.1 Z M213.242,1013.138 L213.242,971.537 L224.267,971.537 C232.646,971.537 236.027,976.241 236.027,985.649 L236.027,999.32 C236.027,1009.169 231.911,1013.138 223.385,1013.138 L213.242,1013.138 Z M256.313,961.1 L256.313,1064 L279.98,1064 C296.003,1064 303.5,1055.327 303.5,1039.892 L303.5,1031.219 C303.5,1019.9 299.678,1011.962 289.682,1009.169 C298.649,1006.376 301.736,999.614 301.736,988.736 L301.736,983.885 C301.736,968.744 295.415,961.1 279.392,961.1 L256.313,961.1 Z M267.779,1004.759 L267.779,971.537 L279.098,971.537 C287.33,971.537 290.417,975.947 290.417,985.061 L290.417,991.088 C290.417,1001.819 285.713,1004.759 276.599,1004.759 L267.779,1004.759 Z M267.779,1053.563 L267.779,1015.196 L277.775,1015.196 C287.624,1015.196 292.181,1019.018 292.181,1030.484 L292.181,1039.598 C292.181,1049.153 288.359,1053.563 279.98,1053.563 L267.779,1053.563 Z M325.403,1001.672 L325.403,961.1 L313.937,961.1 L313.937,1064 L336.428,1064 C352.451,1064 359.507,1054.445 359.507,1038.863 L359.507,1026.515 C359.507,1010.198 351.863,1001.672 335.546,1001.672 L325.403,1001.672 Z M369.062,961.1 L369.062,1064 L380.381,1064 L380.381,961.1 L369.062,961.1 Z M325.403,1053.563 L325.403,1011.962 L335.546,1011.962 C344.072,1011.962 348.188,1015.784 348.188,1025.78 L348.188,1039.451 C348.188,1048.859 344.807,1053.563 336.428,1053.563 L325.403,1053.563 Z M425.804,940.079 C425.363,945.812 421.835,947.576 416.984,947.576 C412.133,947.576 408.752,945.812 408.311,940.079 L401.108,940.079 C401.402,949.046 407.135,954.485 416.984,954.485 C426.833,954.485 432.86,949.046 432.86,940.079 L425.804,940.079 Z M430.361,982.121 L430.361,1064 L440.651,1064 L440.651,961.1 L427.862,961.1 L411.839,1008.14 L402.284,1037.834 L402.284,961.1 L392.141,961.1 L392.141,1064 L404.048,1064 L420.071,1014.461 L430.361,982.121 Z M486.662,1009.022 L486.662,971.537 L516.062,971.537 L516.062,961.1 L475.196,961.1 L475.196,1064 L486.662,1064 L486.662,1019.459 L510.329,1019.459 L510.329,1009.022 L486.662,1009.022 Z M536.054,961.1 L524.735,961.1 L524.735,1039.157 C524.735,1054.739 531.938,1065.176 547.667,1065.176 C563.543,1065.176 570.746,1054.739 570.746,1039.157 L570.746,961.1 L560.015,961.1 L560.015,1039.745 C560.015,1049.006 556.34,1054.592 548.108,1054.592 C539.729,1054.592 536.054,1049.006 536.054,1039.745 L536.054,961.1 Z M592.208,980.798 L618.521,1064 L630.428,1064 L630.428,961.1 L620.285,961.1 L620.285,1035.482 L596.471,961.1 L581.918,961.1 L581.918,1064 L592.208,1064 L592.208,980.798 Z M641.306,1039.157 C641.306,1054.739 649.097,1065.029 664.826,1065.029 C680.702,1065.029 688.493,1054.739 688.493,1039.157 L688.493,985.943 C688.493,970.214 680.702,960.071 664.826,960.071 C649.097,960.071 641.306,970.214 641.306,985.943 L641.306,1039.157 Z M652.625,985.355 C652.625,976.094 656.594,970.508 664.826,970.508 C673.205,970.508 677.027,976.094 677.027,985.355 L677.027,1039.745 C677.027,1049.153 673.205,1054.592 664.826,1054.592 C656.594,1054.592 652.625,1049.153 652.625,1039.745 L652.625,985.355 Z M699.371,961.1 L699.371,1064 L723.038,1064 C739.061,1064 746.558,1055.327 746.558,1039.892 L746.558,1031.219 C746.558,1019.9 742.736,1011.962 732.74,1009.169 C741.707,1006.376 744.794,999.614 744.794,988.736 L744.794,983.885 C744.794,968.744 738.473,961.1 722.45,961.1 L699.371,961.1 Z M710.837,1004.759 L710.837,971.537 L722.156,971.537 C730.388,971.537 733.475,975.947 733.475,985.061 L733.475,991.088 C733.475,1001.819 728.771,1004.759 719.657,1004.759 L710.837,1004.759 Z M710.837,1053.563 L710.837,1015.196 L720.833,1015.196 C730.682,1015.196 735.239,1019.018 735.239,1030.484 L735.239,1039.598 C735.239,1049.153 731.417,1053.563 723.038,1053.563 L710.837,1053.563 Z M768.461,1001.672 L768.461,961.1 L756.995,961.1 L756.995,1064 L779.486,1064 C795.509,1064 802.565,1054.445 802.565,1038.863 L802.565,1026.515 C802.565,1010.198 794.921,1001.672 778.604,1001.672 L768.461,1001.672 Z M812.12,961.1 L812.12,1064 L823.439,1064 L823.439,961.1 L812.12,961.1 Z M768.461,1053.563 L768.461,1011.962 L778.604,1011.962 C787.13,1011.962 791.246,1015.784 791.246,1025.78 L791.246,1039.451 C791.246,1048.859 787.865,1053.563 779.486,1053.563 L768.461,1053.563 Z M868.862,940.079 C868.421,945.812 864.893,947.576 860.042,947.576 C855.191,947.576 851.81,945.812 851.369,940.079 L844.166,940.079 C844.46,949.046 850.193,954.485 860.042,954.485 C869.891,954.485 875.918,949.046 875.918,940.079 L868.862,940.079 Z M873.419,982.121 L873.419,1064 L883.709,1064 L883.709,961.1 L870.92,961.1 L854.897,1008.14 L845.342,1037.834 L845.342,961.1 L835.199,961.1 L835.199,1064 L847.106,1064 L863.129,1014.461 L873.419,982.121 Z M960.884,1064 L972.938,1064 L952.358,1010.933 L971.615,961.1 L960.884,961.1 L944.861,1002.26 L928.985,961.1 L917.078,961.1 L936.482,1010.933 L915.755,1064 L926.633,1064 L943.832,1019.606 L960.884,1064 Z M1019.831,1043.273 L1023.8,1064 L1035.266,1064 L1015.568,961.1 L998.957,961.1 L979.259,1064 L989.843,1064 L993.812,1043.273 L1019.831,1043.273 Z M1006.601,974.036 L1018.214,1033.424 L995.282,1033.424 L1006.601,974.036 Z M1083.776,1064 L1095.536,1064 L1068.635,1007.993 L1094.654,961.1 L1083.041,961.1 L1055.699,1010.786 L1055.699,961.1 L1044.233,961.1 L1044.233,1064 L1055.699,1064 L1055.699,1029.455 L1061.726,1019.312 L1083.776,1064 Z M1141.988,1043.273 L1145.957,1064 L1157.423,1064 L1137.725,961.1 L1121.114,961.1 L1101.416,1064 L1112,1064 L1115.969,1043.273 L1141.988,1043.273 Z M1128.758,974.036 L1140.371,1033.424 L1117.439,1033.424 L1128.758,974.036 Z M1193.585,1064 L1193.585,971.537 L1212.548,971.537 L1212.548,961.1 L1163.156,961.1 L1163.156,971.537 L1182.119,971.537 L1182.119,1064 L1193.585,1064 Z M1220.192,1039.157 C1220.192,1054.739 1227.983,1065.029 1243.712,1065.029 C1259.588,1065.029 1267.379,1054.739 1267.379,1039.157 L1267.379,985.943 C1267.379,970.214 1259.588,960.071 1243.712,960.071 C1227.983,960.071 1220.192,970.214 1220.192,985.943 L1220.192,1039.157 Z M1231.511,985.355 C1231.511,976.094 1235.48,970.508 1243.712,970.508 C1252.091,970.508 1255.913,976.094 1255.913,985.355 L1255.913,1039.745 C1255.913,1049.153 1252.091,1054.592 1243.712,1054.592 C1235.48,1054.592 1231.511,1049.153 1231.511,1039.745 L1231.511,985.355 Z M1315.007,1017.695 L1315.007,1064 L1326.473,1064 L1326.473,961.1 L1315.007,961.1 L1315.007,1007.405 L1289.723,1007.405 L1289.723,961.1 L1278.257,961.1 L1278.257,1064 L1289.723,1064 L1289.723,1017.695 L1315.007,1017.695 Z M1422.905,1078.112 L1422.905,1053.857 L1415.114,1053.857 L1415.114,961.1 L1373.807,961.1 L1369.838,1038.863 C1369.544,1045.184 1368.809,1049.888 1365.281,1053.857 L1358.666,1053.857 L1358.666,1078.112 L1369.691,1078.112 L1369.691,1064 L1411.733,1064 L1411.733,1078.112 L1422.905,1078.112 Z M1384.391,971.537 L1403.501,971.537 L1403.501,1053.857 L1376.306,1053.857 C1379.54,1050.476 1380.569,1046.066 1381.01,1038.716 L1384.391,971.537 Z M1474.502,971.537 L1474.502,1064 L1485.968,1064 L1485.968,961.1 L1444.073,961.1 L1441.28,1039.01 C1440.986,1048.859 1439.369,1053.71 1429.814,1053.71 L1429.814,1064.147 L1431.725,1064.147 C1447.454,1064 1451.864,1054.739 1452.452,1038.422 L1454.804,971.537 L1474.502,971.537 Z M1532.861,1020.047 L1532.861,1064 L1544.327,1064 L1544.327,961.1 L1521.395,961.1 C1505.225,961.1 1498.463,969.332 1498.463,984.62 L1498.463,992.999 C1498.463,1004.318 1502.432,1011.374 1511.105,1014.167 C1501.844,1016.96 1498.316,1024.604 1498.316,1035.629 L1498.316,1051.652 C1498.316,1056.209 1498.022,1060.472 1496.258,1064 L1507.871,1064 C1509.194,1061.06 1509.782,1058.414 1509.782,1051.505 L1509.782,1035.335 C1509.782,1023.722 1515.221,1020.047 1524.776,1020.047 L1532.861,1020.047 Z M1532.861,971.537 L1532.861,1009.61 L1524.188,1009.61 C1515.221,1009.61 1509.782,1006.67 1509.782,995.498 L1509.782,985.649 C1509.782,976.388 1513.163,971.537 1521.689,971.537 L1532.861,971.537 Z M1578.872,961.1 L1578.872,1064 L1590.338,1064 L1590.338,1023.428 L1600.481,1023.428 C1616.798,1023.428 1624.442,1014.902 1624.442,998.585 L1624.442,986.237 C1624.442,970.655 1617.533,961.1 1601.363,961.1 L1578.872,961.1 Z M1590.338,1013.138 L1590.338,971.537 L1601.363,971.537 C1609.742,971.537 1613.123,976.241 1613.123,985.649 L1613.123,999.32 C1613.123,1009.169 1609.007,1013.138 1600.481,1013.138 L1590.338,1013.138 Z M1671.041,1043.273 L1675.01,1064 L1686.476,1064 L1666.778,961.1 L1650.167,961.1 L1630.469,1064 L1641.053,1064 L1645.022,1043.273 L1671.041,1043.273 Z M1657.811,974.036 L1669.424,1033.424 L1646.492,1033.424 L1657.811,974.036 Z M1717.934,960.071 C1702.205,960.071 1695.002,970.067 1695.002,985.796 L1695.002,992.264 L1705.586,992.264 L1705.586,985.355 C1705.586,976.094 1709.408,970.508 1717.64,970.508 C1726.019,970.508 1729.694,975.8 1729.694,986.384 L1729.694,991.088 C1729.694,1000.055 1724.696,1005.2 1717.052,1005.2 L1711.613,1005.2 L1711.613,1015.49 L1716.464,1015.49 C1725.137,1015.49 1729.694,1020.782 1729.694,1030.778 L1729.694,1038.863 C1729.694,1049.153 1726.019,1054.592 1717.64,1054.592 C1709.408,1054.592 1705.586,1049.006 1705.586,1039.745 L1705.586,1029.161 L1694.855,1029.161 L1694.855,1039.157 C1694.855,1054.739 1702.205,1065.029 1717.934,1065.029 C1733.81,1065.029 1741.16,1054.739 1741.16,1039.157 L1741.16,1031.072 C1741.16,1020.782 1737.191,1012.844 1728.518,1009.904 C1736.897,1006.817 1741.16,999.173 1741.16,988.589 L1741.16,985.943 C1741.16,970.361 1733.81,960.071 1717.934,960.071 L1717.934,960.071 Z M1752.332,961.1 L1752.332,1064 L1763.798,1064 L1763.798,1023.428 L1773.941,1023.428 C1790.258,1023.428 1797.902,1014.902 1797.902,998.585 L1797.902,986.237 C1797.902,970.655 1790.993,961.1 1774.823,961.1 L1752.332,961.1 Z M1763.798,1013.138 L1763.798,971.537 L1774.823,971.537 C1783.202,971.537 1786.583,976.241 1786.583,985.649 L1786.583,999.32 C1786.583,1009.169 1782.467,1013.138 1773.941,1013.138 L1763.798,1013.138 Z M1844.501,1043.273 L1848.47,1064 L1859.936,1064 L1840.238,961.1 L1823.627,961.1 L1803.929,1064 L1814.513,1064 L1818.482,1043.273 L1844.501,1043.273 Z M1831.271,974.036 L1842.884,1033.424 L1819.952,1033.424 L1831.271,974.036 Z M1880.369,1003.583 L1880.369,971.537 L1912.415,971.537 L1912.415,961.1 L1869.05,961.1 L1869.05,1064 L1893.011,1064 C1909.181,1064 1916.678,1055.033 1916.678,1039.01 L1916.678,1027.691 C1916.678,1011.227 1908.446,1003.583 1892.423,1003.583 L1880.369,1003.583 Z M1880.369,1053.563 L1880.369,1013.873 L1892.423,1013.873 C1900.802,1013.873 1905.212,1016.96 1905.212,1026.956 L1905.212,1039.745 C1905.212,1049.3 1901.39,1053.563 1893.011,1053.563 L1880.369,1053.563 Z M1926.968,1039.157 C1926.968,1054.739 1934.759,1065.029 1950.488,1065.029 C1966.364,1065.029 1974.155,1054.739 1974.155,1039.157 L1974.155,985.943 C1974.155,970.214 1966.364,960.071 1950.488,960.071 C1934.759,960.071 1926.968,970.214 1926.968,985.943 L1926.968,1039.157 Z M1938.287,985.355 C1938.287,976.094 1942.256,970.508 1950.488,970.508 C1958.867,970.508 1962.689,976.094 1962.689,985.355 L1962.689,1039.745 C1962.689,1049.153 1958.867,1054.592 1950.488,1054.592 C1942.256,1054.592 1938.287,1049.153 1938.287,1039.745 L1938.287,985.355 Z M2012.228,1064 L2012.228,971.537 L2031.191,971.537 L2031.191,961.1 L1981.799,961.1 L1981.799,971.537 L2000.762,971.537 L2000.762,1064 L2012.228,1064 Z M2075.438,1064 L2086.757,1064 L2086.757,961.1 L2075.438,961.1 L2075.438,1004.024 C2074.262,1011.815 2069.999,1016.078 2063.09,1016.078 C2055.005,1016.078 2050.448,1009.904 2050.448,1001.231 L2050.448,961.1 L2038.982,961.1 L2038.982,1002.113 C2038.982,1015.931 2045.597,1026.515 2059.415,1026.515 C2065.589,1026.515 2071.763,1023.722 2075.438,1018.43 L2075.438,1064 Z M2136.884,982.121 L2136.884,1064 L2147.174,1064 L2147.174,961.1 L2134.385,961.1 L2117.921,1009.463 L2108.807,1037.834 L2108.807,961.1 L2098.664,961.1 L2098.664,1064 L2110.571,1064 L2125.712,1016.519 L2136.884,982.121 Z M2198.33,1064 L2210.09,1064 L2183.189,1007.993 L2209.208,961.1 L2197.595,961.1 L2170.253,1010.786 L2170.253,961.1 L2158.787,961.1 L2158.787,1064 L2170.253,1064 L2170.253,1029.455 L2176.28,1019.312 L2198.33,1064 Z M2218.028,1039.157 C2218.028,1054.739 2225.819,1065.029 2241.548,1065.029 C2257.424,1065.029 2265.215,1054.739 2265.215,1039.157 L2265.215,985.943 C2265.215,970.214 2257.424,960.071 2241.548,960.071 C2225.819,960.071 2218.028,970.214 2218.028,985.943 L2218.028,1039.157 Z M2229.347,985.355 C2229.347,976.094 2233.316,970.508 2241.548,970.508 C2249.927,970.508 2253.749,976.094 2253.749,985.355 L2253.749,1039.745 C2253.749,1049.153 2249.927,1054.592 2241.548,1054.592 C2233.316,1054.592 2229.347,1049.153 2229.347,1039.745 L2229.347,985.355 Z M2276.093,961.1 L2276.093,1064 L2299.76,1064 C2315.783,1064 2323.28,1055.327 2323.28,1039.892 L2323.28,1031.219 C2323.28,1019.9 2319.458,1011.962 2309.462,1009.169 C2318.429,1006.376 2321.516,999.614 2321.516,988.736 L2321.516,983.885 C2321.516,968.744 2315.195,961.1 2299.172,961.1 L2276.093,961.1 Z M2287.559,1004.759 L2287.559,971.537 L2298.878,971.537 C2307.11,971.537 2310.197,975.947 2310.197,985.061 L2310.197,991.088 C2310.197,1001.819 2305.493,1004.759 2296.379,1004.759 L2287.559,1004.759 Z M2287.559,1053.563 L2287.559,1015.196 L2297.555,1015.196 C2307.404,1015.196 2311.961,1019.018 2311.961,1030.484 L2311.961,1039.598 C2311.961,1049.153 2308.139,1053.563 2299.76,1053.563 L2287.559,1053.563 Z" id="Первый-FUNовый-хакат" fill="#2C3A42" sketch:type="MSShapeGroup"></path>
        <path d="M2375.458,478.058 C2364.116,478.058 2358.816,485.372 2358.816,496.714 L2358.816,500.106 L2366.554,500.106 L2366.554,496.29 C2366.554,489.612 2369.31,485.478 2375.246,485.478 C2381.288,485.478 2383.938,489.4 2383.938,497.032 L2383.938,500.424 C2383.938,506.89 2380.546,510.388 2375.034,510.6 L2370.158,510.6 L2370.158,518.02 L2374.61,518.02 C2380.864,518.232 2383.938,521.73 2383.938,529.044 L2383.938,534.768 C2383.938,542.294 2381.288,546.216 2375.246,546.216 C2369.31,546.216 2366.554,542.188 2366.554,535.51 L2366.554,529.892 L2358.816,529.892 L2358.816,534.98 C2358.816,546.322 2364.116,553.742 2375.458,553.742 C2386.906,553.742 2392.206,546.322 2392.206,534.98 L2392.206,529.256 C2392.206,521.836 2389.45,516.218 2383.196,513.886 C2389.132,511.66 2392.206,506.254 2392.206,498.622 L2392.206,496.714 C2392.206,485.372 2386.906,478.058 2375.458,478.058 L2375.458,478.058 Z M2400.262,542.718 L2400.262,553 L2408.212,553 L2408.212,542.718 L2400.262,542.718 Z M2416.056,534.98 C2416.056,546.322 2421.674,553.742 2433.016,553.742 C2444.464,553.742 2450.082,546.322 2450.082,534.98 L2450.082,496.714 C2450.082,485.372 2444.464,478.058 2433.016,478.058 C2421.674,478.058 2416.056,485.372 2416.056,496.714 L2416.056,534.98 Z M2424.218,496.29 C2424.218,489.506 2427.08,485.478 2433.016,485.478 C2439.058,485.478 2441.814,489.506 2441.814,496.29 L2441.814,535.51 C2441.814,542.188 2439.058,546.216 2433.016,546.216 C2427.08,546.216 2424.218,542.188 2424.218,535.51 L2424.218,496.29 Z" id="3.0" fill="#FFFFFF" sketch:type="MSShapeGroup"></path>
    </g>
</svg>