<?xml version="1.0" encoding="UTF-8"?>
<svg width="1143px" height="646px" viewBox="0 0 1143 646" version="1.1" xmlns="http://www.w3.org/2000/svg" xmlns:xlink="http://www.w3.org/1999/xlink">
    <!-- Generator: Sketch 42 (36781) - http://www.bohemiancoding.com/sketch -->
    <title>WTH</title>
    <desc>What the hack?</desc>
    <defs></defs>
    <g id="Page-1" stroke="none" stroke-width="1" fill="none" fill-rule="evenodd">
        <g id="LogoB" fill-rule="nonzero" fill="#2C3A42">
            <g id="Layer_2">
                <g id="Layer_1-2">
                    <path d="M1085.603,14.4026471 C1079.39092,13.0545741 1073.05222,12.3736911 1066.69508,12.3716153 C1040.05058,12.2929332 1016.17535,28.7872607 1006.85987,53.709085 C1004.34679,58.3685107 996.448545,72.1078431 986.755242,88.595042 C981.974923,81.2328605 975.940148,74.7632845 968.924351,69.4794491 L968.206328,68.5236695 C960.380842,55.9597002 948.899099,46.0808935 935.296965,40.2086975 C926.778532,36.6161538 917.61833,34.7871439 908.371123,34.832437 C903.670977,34.9008772 898.985892,35.3806039 894.369685,36.2661064 C874.107761,40.9781379 854.987939,49.6693585 838.124593,61.833212 C817.92153,45.2352378 791.570337,38.0604368 765.723995,42.1202568 C700.84205,14.1016932 630.819942,-0.09929156 560.130231,0.42436975 C410.422549,0.42436975 280.221143,60.8774323 213.086043,150.123357 C205.666478,150.123357 199.563287,149.048105 194.6568,148.570215 C187.596246,147.85338 182.091407,147.37549 176.347227,147.37549 C172.334608,147.388485 168.330647,147.748246 164.380186,148.450742 C147.762509,151.214534 133.383462,161.550322 125.487303,176.407297 L124.769281,177.840966 C122.256202,182.85881 107.297401,211.771144 88.8681577,247.254463 C17.3052527,385.245149 8.9283241,401.851821 6.65458629,407.467026 C2.58090751,416.649148 0.4618707,426.575873 0.43172498,436.618305 C-0.37231601,474.527538 22.4738688,508.954403 57.7538512,522.996891 C67.4155179,527.435373 77.8776799,529.873861 88.5091465,530.165238 C92.0008746,530.150536 95.4846122,529.830722 98.920472,529.209458 C115.53133,525.56312 130.223028,515.954913 140.206763,502.208683 C144.99358,495.996116 154.208201,484.287815 165.816231,469.712176 C184.422614,488.869415 209.933861,499.797013 236.661114,500.058179 C240.91284,500.071078 245.157492,499.71128 249.346177,498.982927 C259.494214,497.102678 269.172127,493.246035 277.827735,487.633044 C313.534927,513.570703 353.112492,533.729936 395.104736,547.369272 C399.837411,548.939513 403.695094,552.416735 405.74166,556.957137 C407.788226,561.497538 407.836611,566.686108 405.875073,571.263763 C398.824362,587.792923 389.521945,603.271305 378.231208,617.260658 C374.076626,623.113965 373.790719,630.868592 377.50303,637.010986 C381.215341,643.153379 388.220322,646.51614 395.344077,645.57563 C441.074772,637.99749 483.587334,617.233185 517.647236,585.839402 C525.962372,577.954761 537.056513,573.66182 548.522201,573.892157 L560.489242,573.892157 C731.737599,573.892157 877.496158,494.801391 932.185535,384.050425 L935.296965,384.050425 C968.325999,378.076802 998.12393,338.770364 1003.15009,307.468581 C1011.81486,301.529003 1018.9499,293.627944 1023.97274,284.410397 C1031.63165,271.029482 1119.70907,122.04733 1127.84665,110.100084 C1137.13112,98.593806 1142.3852,84.3683056 1142.80546,69.5989216 C1142.44644,64.2226611 1140.77106,19.4204902 1085.603,14.4026471 L1085.603,14.4026471 Z M647.728971,379.271527 C639.631196,379.092408 631.588923,377.888063 623.794889,375.687353 C616.33581,375.002442 610.65691,368.70877 610.750814,361.231186 C610.895454,358.160132 611.542233,355.133369 612.665541,352.270752 C617.931039,340.323506 633.248851,311.530644 652.396117,278.078357 L574.849691,300.061289 C551.633632,340.562451 531.648674,375.56788 522.673393,393.249804 C519.632731,399.531669 513.757364,403.975341 506.876899,405.197049 C494.072165,407.467026 474.565888,400.896041 474.565888,386.200929 C474.524207,383.717888 475.188089,381.273875 476.480615,379.152054 C481.02809,370.908455 494.909858,347.372381 512.381738,317.743212 C507.353408,319.660773 502.194493,321.217865 496.944255,322.402638 C484.82671,322.817439 474.559482,313.571084 473.728195,301.494958 C473.674888,297.69346 475.883455,294.221895 479.352705,292.653996 C485.336225,290.145075 508.552285,283.335145 537.512524,275.449963 C567.071115,225.271531 598.903444,171.269981 613.862245,146.658655 C590.646186,152.990696 569.344853,159.322736 542.778022,167.32739 C488.010373,244.397488 441.37023,326.913678 403.601335,413.560121 C397.617815,428.135761 393.070339,434.587274 386.368796,435.781998 C367.221531,439.246699 353.339763,417.38324 353.339763,399.940261 C353.319027,396.298738 353.843387,392.674556 354.895478,389.18774 C360.041306,371.505817 437.707402,239.369281 467.146323,190.146629 L440.340151,197.912339 C378.70989,275.211018 310.617427,367.204809 263.706626,435.662526 C258.916795,443.852785 250.869814,449.628343 241.567601,451.552362 C227.685833,454.061284 198.007571,442.830873 198.007571,427.657871 C198.063349,424.957663 198.424653,422.272401 199.084605,419.653217 C202.076365,410.931727 238.45617,326.464701 248.987166,296.477115 C213.086043,333.633049 118.426749,451.791307 102.749925,472.460042 C100.001036,476.891087 95.756988,480.195969 90.7828843,481.778894 C85.4157261,482.064444 80.0737545,480.865523 75.3454014,478.314192 C58.3088942,471.441076 47.4690363,454.585685 48.2998889,436.259888 C48.3571785,432.447361 49.256117,428.694382 50.9326379,425.268422 C53.5653869,418.458492 160.072052,212.965868 167.252276,198.270756 C168.272445,196.250806 170.261639,194.896781 172.517774,194.686583 C185.322853,194.715495 198.113263,195.553477 210.812305,197.195504 C216.720613,199.770946 220.660301,205.462476 220.98429,211.890616 C221.014609,213.932456 220.520195,215.947975 219.548245,217.744767 C198.964935,254.781228 137.813355,359.319627 117.469386,402.568655 C169.645684,341.99612 278.426087,201.496513 290.393128,188.593487 C293.635051,184.583363 298.153394,181.800957 303.197861,180.708305 C310.737097,179.394108 347.834924,189.19085 347.834924,196.00078 C347.777161,197.468329 347.276609,198.884215 346.398879,200.062843 C340.056348,212.846396 278.904768,315.831653 261.193548,380.824669 C280.460484,353.943366 356.929875,255.498063 395.942429,205.439104 C387.210326,200.970638 381.188821,192.554475 379.786924,182.85881 C379.786924,175.690462 385.411433,169.836312 395.583418,166.610556 C399.891553,165.176886 422.150249,160.278515 451.349829,154.065948 C453.110383,153.467156 454.909562,152.988169 456.734997,152.632278 L458.649724,152.632278 C499.217993,143.791317 550.91561,133.636158 589.210141,126.826228 C604.971172,123.353393 620.972962,121.07691 637.078305,120.016298 C641.340466,120.449574 644.828425,123.593217 645.694574,127.782007 C656.22557,129.813039 667.8336,134.830882 667.8336,142.238175 C667.570434,145.235704 666.540247,148.115456 664.84184,150.601246 C644.61754,182.739337 621.28181,221.32894 599.142785,258.126457 C627.624342,250.719164 655.387877,243.550817 673.458109,239.249809 C710.555936,175.332045 750.765194,107.830107 753.397943,103.648571 C758.663441,94.4491923 763.210916,89.909239 770.630482,88.595042 C783.794227,86.2055929 809.284024,91.1039636 809.284024,106.396438 C808.918236,111.665476 806.814097,116.665042 803.300504,120.61366 C767.399381,158.486429 676.928551,330.048875 657.781285,369.474785 C656.289072,374.217261 652.513878,377.896474 647.728971,379.271527 L647.728971,379.271527 Z M743.465299,364.456942 C739.364963,365.275994 735.115733,364.155162 731.955739,361.421031 C728.795745,358.6869 727.080502,354.647072 727.309793,350.478665 C727.309793,338.531419 740.473538,312.964314 754.714317,310.33592 C759.267175,309.789283 763.836619,311.214726 767.26777,314.251981 C770.698922,317.289236 772.663464,321.647678 772.664879,326.225756 C772.664879,336.61986 754.355306,362.306438 743.465299,364.33747 L743.465299,364.456942 Z M780.204115,295.76028 C780.204115,296.596587 778.76807,296.835532 777.212354,297.074477 C770.510811,298.269202 757.706077,294.923973 757.347066,289.069823 L757.347066,287.158263 C757.347066,256.81226 789.658077,230.05043 848.89493,193.969748 C905.499033,159.920098 925.00531,135.428245 925.00531,123.839416 C925.00531,117.865794 919.739812,115.356872 911.123543,116.910014 C880.088696,126.483143 853.567122,146.935472 836.449207,174.495738 C834.160971,180.305117 829.295571,184.720892 823.285462,186.442983 C812.395455,188.354542 801.505447,175.690462 801.505447,166.371611 C801.525593,164.909944 801.767687,163.459783 802.22347,162.070602 C809.403694,145.463931 866.725821,89.0729318 902.746614,82.6214192 C907.567164,81.6127844 912.58203,82.1134414 917.107063,84.0550887 C927.279048,87.8782073 929.074104,99.944925 939.246089,106.635383 C947.085299,112.396743 951.564976,121.654335 951.21313,131.366181 C951.21313,145.941821 942.237849,167.207918 911.841565,194.56711 C891.976277,213.085341 807.249627,254.9007 780.204115,295.640808 L780.204115,295.76028 Z M926.441355,336.61986 C922.352104,337.548525 918.062689,336.53053 914.829494,333.864048 C911.596299,331.197566 909.785261,327.184393 909.926839,323 C909.926839,311.052754 923.090584,285.485649 937.331362,282.857255 C941.822775,282.316819 946.333892,283.695526 949.752567,286.653476 C953.171241,289.611426 955.179386,293.873401 955.281924,298.388674 C955.760606,308.782778 937.810044,334.947246 926.441355,336.500387 L926.441355,336.61986 Z M1089.43245,81.3072222 C1081.89322,91.7013259 988.909309,248.56866 982.566777,260.515906 C979.941579,265.884029 974.926138,269.694776 969.044021,270.790537 C955.880276,273.179986 954.08522,258.843291 954.08522,247.61288 C954.004193,244.707887 954.534166,241.818206 955.640935,239.130336 C959.709729,230.169902 1047.1888,82.024057 1051.37726,73.7804575 C1055.56573,65.5368581 1058.55749,60.8774323 1063.82299,60.1605976 C1068.39794,59.6740885 1073.0236,60.0386679 1077.46541,61.2358497 C1081.53421,62.3111018 1094.69795,61.2358497 1094.69795,69.0015593 C1094.19281,73.5310649 1092.3613,77.8113749 1089.43245,81.3072222 L1089.43245,81.3072222 Z" id="Shape"></path>
                </g>
            </g>
        </g>
    </g>
</svg>
